<svg width="64" height="64" viewBox="0 0 64 64" fill="none" xmlns="http://www.w3.org/2000/svg">
<rect width="64" height="64" fill="black"/>
<path d="M3 3H22V22H3V3Z" fill="black"/>
<path d="M3 22H22V42H3V22Z" fill="black"/>
<path d="M3 42H22V61H3V42Z" fill="black"/>
<path d="M22 3H42V22H22V3Z" fill="black"/>
<path d="M22 22H42V42H22V22Z" fill="black"/>
<path d="M22 42H42V61H22V42Z" fill="black"/>
<path d="M42 3H61V22H42V3Z" fill="black"/>
<path d="M42 22H61V42H42V22Z" fill="black"/>
<path d="M42 42H61V61H42V42Z" fill="black"/>
<path d="M22 3H3V22M22 3V22M22 3H42M22 22H3M22 22V42M22 22H42M3 22V42M22 42H3M22 42V61M22 42H42M3 42V61H22M22 61H42M42 3V22M42 3H61V22M42 22V42M42 22H61M42 42V61M42 42H61M42 61H61V42M61 22V42" stroke="#FFFF00"/>
<path d="M3.00002 3.00001L61 61M22 3L61 42M3 22L42 61M3 42L22 61M42 3L61 22" stroke="#FFFF00"/>
</svg>
