<svg width="132" height="132" viewBox="0 0 132 132" fill="none" xmlns="http://www.w3.org/2000/svg">
<path d="M2 66L22.9655 45.0345M2 66L22.9655 86.9655M2 66H130M22.9655 45.0345L43.931 66M22.9655 45.0345L45.0345 22.9655M22.9655 45.0345H109.034M43.931 66L22.9655 86.9655M43.931 66L66 88.069M43.931 66L66 43.931M22.9655 86.9655L45.0345 109.034M22.9655 86.9655H109.034M66 88.069L45.0345 109.034M66 88.069L86.9655 109.034M66 88.069L88.069 66M45.0345 109.034L66 130L86.9655 109.034M45.0345 109.034H86.9655M86.9655 109.034L109.034 86.9655M45.0345 22.9655L66 43.931M45.0345 22.9655L66 2L86.9655 22.9655M45.0345 22.9655H86.9655M66 43.931L88.069 66M66 43.931L86.9655 22.9655M88.069 66L109.034 86.9655M88.069 66L109.034 45.0345M109.034 86.9655L130 66M86.9655 22.9655L109.034 45.0345M109.034 45.0345L130 66" stroke="black" stroke-width="2"/>
</svg>
