<svg width="64" height="64" viewBox="0 0 64 64" xmlns="http://www.w3.org/2000/svg">
<path d="M55.68 8.26401C53.7253 6.30934 51.3733 5.33334 48.6213 5.33334H15.3227C12.5707 5.33334 10.2187 6.30934 8.26401 8.26401C6.30934 10.2187 5.33334 12.5707 5.33334 15.3227V48.6213C5.33334 51.3733 6.30934 53.7253 8.26401 55.68C10.2187 57.6347 12.5707 58.6107 15.3227 58.6107H23.0933C23.6 58.6107 23.9813 58.592 24.2373 58.5573C24.5352 58.4976 24.804 58.3388 25 58.1067C25.2533 57.84 25.3813 57.4533 25.3813 56.9467L25.3627 54.5867C25.352 53.0827 25.3467 51.8933 25.3467 51.0133L24.5467 51.152C24.04 51.2453 23.4 51.2853 22.624 51.2747C21.8152 51.2598 21.0089 51.1786 20.2133 51.032C19.3664 50.8756 18.5691 50.5191 17.888 49.992C17.1747 49.4524 16.6426 48.7082 16.3627 47.8587L16.016 47.0587C15.7238 46.4276 15.3567 45.834 14.9227 45.2907C14.4267 44.6427 13.9227 44.2053 13.4133 43.9733L13.1733 43.8C13.006 43.6801 12.8538 43.5405 12.72 43.384C12.5923 43.2388 12.4871 43.0752 12.408 42.8987C12.3387 42.736 12.3973 42.6027 12.5813 42.4987C12.768 42.392 13.1013 42.3413 13.5893 42.3413L14.2827 42.448C14.744 42.5387 15.3173 42.816 15.9973 43.2773C16.6855 43.7465 17.2604 44.3633 17.68 45.0827C18.2133 46.0293 18.8533 46.752 19.6053 47.2507C20.3573 47.7467 21.1147 47.9973 21.8773 47.9973C22.64 47.9973 23.2987 47.9387 23.856 47.824C24.395 47.7126 24.9187 47.5371 25.416 47.3013C25.624 45.7547 26.1893 44.56 27.1147 43.728C25.9157 43.6105 24.7274 43.4019 23.56 43.104C22.4208 42.7911 21.3252 42.3369 20.2987 41.752C19.2247 41.1673 18.276 40.3772 17.5067 39.4267C16.768 38.5013 16.16 37.288 15.6853 35.7867C15.2133 34.2827 14.976 32.5467 14.976 30.5813C14.976 27.784 15.888 25.4027 17.7147 23.4347C16.8613 21.3333 16.9413 18.9733 17.9573 16.3627C18.6293 16.152 19.624 16.3093 20.9413 16.8293C22.2587 17.3493 23.224 17.7947 23.8373 18.1627C24.4507 18.536 24.9413 18.848 25.312 19.1013C27.4799 18.498 29.7204 18.1947 31.9707 18.2C34.2613 18.2 36.48 18.5013 38.632 19.1013L39.9493 18.2693C40.9626 17.6609 42.0314 17.1502 43.1413 16.744C44.368 16.28 45.3013 16.1547 45.952 16.3627C46.992 18.976 47.0827 21.3333 46.2267 23.4373C48.0533 25.4027 48.968 27.784 48.968 30.584C48.968 32.5493 48.7307 34.2907 48.256 35.8027C47.784 37.3173 47.1707 38.5307 46.4187 39.4453C45.6358 40.3837 44.6832 41.1662 43.6107 41.752C42.4907 42.376 41.4027 42.8267 40.3493 43.104C39.1821 43.4028 37.9938 43.6123 36.7947 43.7307C37.9947 44.7707 38.5973 46.4107 38.5973 48.6533V56.9467C38.5973 57.3387 38.6533 57.656 38.7707 57.8987C38.8246 58.0156 38.9015 58.1205 38.9968 58.207C39.0921 58.2936 39.2038 58.3601 39.3253 58.4027C39.5813 58.4933 39.8053 58.552 40.0027 58.5733C40.2 58.6 40.4827 58.608 40.8507 58.608H48.6213C51.3733 58.608 53.7253 57.632 55.68 55.6773C57.632 53.7253 58.6107 51.3707 58.6107 48.6187V15.3227C58.6107 12.5707 57.6347 10.2187 55.68 8.26401Z" />
</svg>
