<svg width="64" height="64" viewBox="0 0 64 64" xmlns="http://www.w3.org/2000/svg">
<path fill-rule="evenodd" clip-rule="evenodd" d="M48 8C50.1217 8 52.1566 8.84285 53.6569 10.3431C55.1571 11.8434 56 13.8783 56 16V48C56 50.1217 55.1571 52.1566 53.6569 53.6569C52.1566 55.1571 50.1217 56 48 56H16C13.8783 56 11.8434 55.1571 10.3431 53.6569C8.84285 52.1566 8 50.1217 8 48V16C8 13.8783 8.84285 11.8434 10.3431 10.3431C11.8434 8.84285 13.8783 8 16 8H48ZM21.3333 26.6667C20.6261 26.6667 19.9478 26.9476 19.4477 27.4477C18.9476 27.9478 18.6667 28.6261 18.6667 29.3333V42.6667C18.6667 43.3739 18.9476 44.0522 19.4477 44.5523C19.9478 45.0524 20.6261 45.3333 21.3333 45.3333C22.0406 45.3333 22.7189 45.0524 23.219 44.5523C23.719 44.0522 24 43.3739 24 42.6667V29.3333C24 28.6261 23.719 27.9478 23.219 27.4477C22.7189 26.9476 22.0406 26.6667 21.3333 26.6667ZM29.3333 24C28.6261 24 27.9478 24.281 27.4477 24.781C26.9476 25.2811 26.6667 25.9594 26.6667 26.6667V42.6667C26.6667 43.3739 26.9476 44.0522 27.4477 44.5523C27.9478 45.0524 28.6261 45.3333 29.3333 45.3333C30.0406 45.3333 30.7189 45.0524 31.219 44.5523C31.719 44.0522 32 43.3739 32 42.6667V32.9067C33.0404 31.775 34.3056 30.8731 35.7147 30.2587C36.6027 29.88 37.9387 29.7253 38.8667 30.0187C39.1745 30.0968 39.4487 30.2727 39.648 30.52C39.7867 30.7067 40 31.1227 40 32V42.6667C40 43.3739 40.281 44.0522 40.7811 44.5523C41.2811 45.0524 41.9594 45.3333 42.6667 45.3333C43.3739 45.3333 44.0522 45.0524 44.5523 44.5523C45.0524 44.0522 45.3333 43.3739 45.3333 42.6667V32C45.3333 30.2133 44.88 28.624 43.936 27.3493C43.0673 26.1935 41.8516 25.3459 40.4667 24.9307C38.0613 24.176 35.3973 24.5947 33.6187 25.3573C33.0488 25.6012 32.494 25.8791 31.9573 26.1893C31.8455 25.5749 31.5217 25.0192 31.0421 24.6191C30.5626 24.219 29.9579 23.9999 29.3333 24ZM21.3333 18.6667C20.6261 18.6667 19.9478 18.9476 19.4477 19.4477C18.9476 19.9478 18.6667 20.6261 18.6667 21.3333C18.6667 22.0406 18.9476 22.7189 19.4477 23.219C19.9478 23.719 20.6261 24 21.3333 24C22.0406 24 22.7189 23.719 23.219 23.219C23.719 22.7189 24 22.0406 24 21.3333C24 20.6261 23.719 19.9478 23.219 19.4477C22.7189 18.9476 22.0406 18.6667 21.3333 18.6667Z" />
</svg>
