<svg width="64" height="64" viewBox="0 0 64 64" xmlns="http://www.w3.org/2000/svg">
<path d="M58.64 17.4587C58.6178 16.3146 58.526 15.1729 58.3653 14.04C58.1737 13.0323 57.8482 12.0547 57.3973 11.1333C56.4103 9.18481 54.8279 7.60154 52.88 6.61334C51.9645 6.16458 50.9933 5.83994 49.992 5.64801C48.8504 5.48396 47.6997 5.39045 46.5466 5.36801C46.0586 5.34934 45.4266 5.34134 45.1333 5.34134L18.872 5.33334C18.5786 5.33334 17.9466 5.34134 17.4586 5.36001C16.3146 5.38205 15.1729 5.47378 14.04 5.63468C13.0323 5.82625 12.0547 6.15181 11.1333 6.60268C9.18489 7.58988 7.60166 9.17217 6.61331 11.12C6.16466 12.0355 5.84003 13.0067 5.64798 14.008C5.48319 15.1496 5.38879 16.3002 5.36531 17.4533C5.34931 17.9413 5.33865 18.5733 5.33865 18.8667L5.33331 45.128C5.33331 45.4213 5.34131 46.0533 5.35998 46.5413C5.38202 47.6854 5.47375 48.8271 5.63465 49.96C5.82625 50.9677 6.1518 51.9453 6.60265 52.8667C7.58985 54.8151 9.17214 56.3983 11.12 57.3867C12.0355 57.8353 13.0067 58.1599 14.008 58.352C15.1496 58.5161 16.3002 58.6096 17.4533 58.632C17.9413 58.6507 18.5733 58.6587 18.8666 58.6587L45.128 58.664C45.4213 58.664 46.0533 58.656 46.5413 58.6373C47.6854 58.6152 48.827 58.5235 49.96 58.3627C50.9677 58.171 51.9452 57.8454 52.8666 57.3947C54.8161 56.4079 56.4003 54.8256 57.3893 52.8773C57.838 51.9619 58.1627 50.9906 58.3546 49.9893C58.5195 48.8478 58.6139 47.6972 58.6373 46.544C58.6533 46.056 58.664 45.424 58.664 45.1307L58.6666 18.872C58.6666 18.5787 58.6586 17.9467 58.64 17.4587ZM32.5786 50.552H32.5706C29.3964 50.5514 26.2729 49.7556 23.4853 48.2373L13.4053 50.88L16.104 41.032C14.0145 37.4062 13.1796 33.1923 13.7288 29.0437C14.2779 24.8951 16.1804 21.0436 19.1412 18.0862C22.1021 15.1289 25.9559 13.231 30.1051 12.6868C34.2544 12.1426 38.4673 12.9825 42.0906 15.0763C45.714 17.17 48.5453 20.4007 50.1457 24.2674C51.7461 28.1341 52.0261 32.4207 50.9424 36.4627C49.8586 40.5047 47.4716 44.0763 44.1514 46.6236C40.8312 49.171 36.7634 50.5518 32.5786 50.552Z" fill="black"/>
<path d="M32.5867 15.736C29.7629 15.7352 26.9905 16.4909 24.5577 17.9245C22.1249 19.3581 20.1206 21.4173 18.7533 23.888C17.386 26.3586 16.7055 29.1505 16.7826 31.9732C16.8598 34.7959 17.6918 37.5464 19.192 39.9387L19.568 40.536L17.9707 46.3653L23.952 44.7973L24.528 45.1387C26.9629 46.5807 29.7408 47.3415 32.5707 47.3413H32.5787C36.7702 47.342 40.7903 45.6777 43.7546 42.7143C46.7189 39.751 48.3846 35.7315 48.3854 31.54C48.3861 27.3485 46.7217 23.3284 43.7584 20.3641C40.795 17.3998 36.7755 15.734 32.584 15.7333L32.5867 15.736ZM41.8774 38.3227C41.5278 38.8999 41.0626 39.3986 40.511 39.7873C39.9593 40.176 39.3332 40.4464 38.672 40.5813C37.6737 40.7526 36.6493 40.6886 35.68 40.3947C34.7608 40.1082 33.8573 39.7735 32.9734 39.392C29.6926 37.7456 26.8963 35.2745 24.8587 32.2213C23.7472 30.8079 23.0724 29.1008 22.9174 27.3093C22.9045 26.5699 23.0459 25.8359 23.3324 25.1541C23.6189 24.4723 24.0442 23.8577 24.5814 23.3493C24.7401 23.1683 24.9346 23.022 25.1525 22.9196C25.3705 22.8173 25.6073 22.7611 25.848 22.7547C26.1627 22.7547 26.48 22.7547 26.7574 22.7707C27.0507 22.784 27.44 22.6587 27.824 23.5867C28.224 24.536 29.1734 26.8747 29.2907 27.112C29.366 27.2364 29.4091 27.3777 29.4161 27.5229C29.4231 27.6682 29.3937 27.8129 29.3307 27.944C29.2111 28.2293 29.0512 28.496 28.856 28.736C28.616 29.0133 28.3574 29.3547 28.144 29.568C27.904 29.8053 27.6587 30.0613 27.9334 30.536C28.6468 31.7575 29.5373 32.8664 30.576 33.8267C31.703 34.8287 32.9962 35.6264 34.3974 36.184C34.872 36.424 35.1494 36.3813 35.4267 36.064C35.704 35.7467 36.6134 34.6773 36.9307 34.2027C37.248 33.728 37.5627 33.808 37.9974 33.9653C38.432 34.1227 40.7707 35.272 41.2454 35.512C41.72 35.752 42.0374 35.8667 42.1547 36.064C42.2847 36.8278 42.1883 37.613 41.8774 38.3227Z" />
</svg>
